<svg width="376" height="203" viewBox="0 0 376 203" fill="none" xmlns="http://www.w3.org/2000/svg">
<g filter="url(#filter0_d_4217_6406)">
<path d="M22.1397 105.396L60.8914 0H356C353.019 43.4683 346.819 135.288 345.865 154.819C344.911 174.35 329.967 175.263 322.614 173.278C235.373 160.178 56.0027 133.263 36.448 130.405C16.8933 127.547 18.7614 112.541 22.1397 105.396Z" fill="white"/>
</g>
<rect x="79" y="55" width="219" height="68" fill="white"/>
<g clip-path="url(#clip0_4217_6406)">
<path d="M105.526 95.2168L111.964 90.4723C112.329 90.2057 112.648 89.739 112.831 89.2557C111.53 87.5557 110.092 85.9279 108.488 84.3945C108.374 84.2834 108.254 84.1834 108.14 84.0779C106.616 85.7223 105.195 87.5001 103.905 89.4112C102.964 90.8057 102.125 92.2334 101.366 93.6834L103.443 95.2168C104.019 95.639 104.955 95.639 105.526 95.2168Z" fill="#563230"/>
<path d="M120.821 108.344C120.416 105.444 119.691 102.578 118.652 99.7944C118.652 99.7944 116.335 101.939 104.493 101.939C101.976 101.939 99.8933 101.844 98.1698 101.689C96.9599 105.911 96.4292 110.233 96.5433 114.522L101.377 118.083C103.089 119.344 105.891 119.344 107.603 118.083L120.827 108.339L120.821 108.344Z" fill="#563230"/>
<path d="M113.002 79.5834C111.284 80.9501 109.658 82.4445 108.14 84.0779C108.254 84.1834 108.374 84.289 108.488 84.3945C110.086 85.9279 111.53 87.5557 112.831 89.2557C112.939 88.9779 113.002 88.689 113.002 88.4334V79.5779V79.5834Z" fill="#B9352B"/>
<path d="M129.969 71.1611C126.653 72.0111 123.44 73.2334 120.387 74.8056C120.404 74.9334 120.416 75.0611 120.416 75.1834V95.7945C120.416 97.1 119.622 98.9 118.652 99.8C119.685 102.583 120.416 105.444 120.821 108.35L126.853 103.906C128.565 102.644 129.969 99.9056 129.969 97.8111V71.1611Z" fill="#B9352B"/>
<path d="M98.1641 101.689C91.7665 101.128 90.3284 99.8001 90.3284 99.8001C89.3525 98.9001 88.5535 97.0946 88.5535 95.789V75.1779C88.5535 74.7223 88.6676 74.2112 88.8503 73.7112C85.6201 72.939 82.3101 72.539 79 72.5112V97.8001C79 99.8946 80.3982 102.639 82.1103 103.9L96.5319 114.528C96.4177 110.239 96.9485 105.911 98.1584 101.695" fill="#40958B"/>
<path d="M97.0056 90.4722L101.36 93.6833C102.119 92.2333 102.958 90.8055 103.9 89.4111C105.189 87.4999 106.61 85.7222 108.134 84.0777C104.562 80.7333 100.538 78.1166 96.2637 76.2222C96.0811 76.6222 95.9669 77.0555 95.9669 77.4166V88.4333C95.9669 89.1333 96.4349 90.0499 97.0056 90.4722Z" fill="#40958B"/>
<path d="M104.487 74.1333C98.1583 74.1333 96.9199 75.2777 96.9199 75.2777C96.4006 75.7555 95.9839 76.7055 95.9725 77.4055C95.9725 77.0444 96.0924 76.6222 96.2693 76.2277C98.5293 77.2277 100.715 78.4333 102.804 79.8333C104.744 78.1277 106.451 76.2611 107.923 74.2722C106.993 74.1889 105.857 74.1333 104.487 74.1333Z" fill="#E4A02F"/>
<path d="M96.2693 76.2222C96.0924 76.6166 95.9725 77.0444 95.9725 77.3999V77.4111V84.5722C98.1583 83.3944 100.258 81.9888 102.227 80.3333C102.421 80.1666 102.615 79.9999 102.81 79.8333C100.721 78.4277 98.535 77.2277 96.275 76.2277" fill="#54693A"/>
<path d="M104.482 55C85.5402 55 81.8307 58.4222 81.8307 58.4222C80.2727 59.8556 79 62.7444 79 64.8333V72.5111C82.3101 72.5389 85.6144 72.9389 88.8503 73.7167C89.1927 72.7889 89.809 71.8833 90.5053 71.3722L102.541 62.5C103.078 62.1056 103.785 61.9111 104.487 61.9111C105.189 61.9111 105.897 62.1056 106.433 62.5L112.158 66.7167C113.636 63.0889 114.486 59.2667 114.68 55.4056C111.906 55.1556 108.545 55 104.482 55V55Z" fill="#E4A02F"/>
<path d="M79 72.5112V88.939C82.213 88.8946 85.4261 88.439 88.5535 87.5612V75.1723C88.5535 74.7168 88.6619 74.2112 88.8446 73.7168C85.6144 72.939 82.3101 72.539 79 72.5112Z" fill="#54693A"/>
<path d="M154.949 63.5667C154.19 63.5667 153.436 63.6 152.723 63.6722C152.015 63.7444 151.353 63.8389 150.76 63.9555C150.149 64.0778 149.607 64.2111 149.145 64.3611C148.648 64.5222 148.294 64.6722 148.083 64.8055C147.958 64.8667 147.821 64.9611 147.615 65.1167L147.541 65.1778L147.221 64.0555H143.398V100.533H148.083V89.15C148.665 89.2555 149.282 89.3555 149.915 89.4389C151.079 89.5944 152.415 89.6778 153.893 89.6778C155.816 89.6778 157.465 89.4389 158.789 88.9722C160.142 88.5 161.289 87.8278 162.202 86.9722C163.304 85.9 164.194 84.4111 164.856 82.55C165.501 80.7278 165.826 78.5 165.826 75.9222C165.826 73.1667 165.501 70.9555 164.862 69.3611C164.211 67.7222 163.395 66.4889 162.453 65.6944C161.569 64.9333 160.502 64.3778 159.286 64.0444C158.133 63.7333 156.678 63.5722 154.949 63.5722V63.5667ZM153.471 85.45C152.226 85.45 151.056 85.3833 150.001 85.2555C149.304 85.1667 148.665 85.0833 148.083 84.9944V68.8333C148.876 68.5389 149.721 68.3111 150.589 68.15C151.73 67.9444 152.9 67.8389 154.064 67.8389C156.421 67.8389 158.156 68.2278 159.052 68.95C159.588 69.4278 160.056 70.2222 160.444 71.3C160.855 72.4444 161.061 74.0667 161.061 76.1278C161.061 78.1889 160.838 79.9555 160.393 81.2833C159.977 82.5333 159.463 83.4444 158.852 83.9944C158.344 84.4889 157.682 84.85 156.883 85.0722C156.004 85.3167 154.857 85.4444 153.471 85.4444" fill="#563230"/>
<path d="M183.255 63.6499C182.371 63.6499 181.475 63.6943 180.607 63.7777C179.78 63.861 178.952 63.9555 178.148 64.0721C177.36 64.1888 176.63 64.3166 175.979 64.4555C175.334 64.5943 174.786 64.7221 174.324 64.8332L173.479 65.0388V69.1666L174.832 68.8832C175.208 68.8055 175.705 68.7166 176.31 68.6277L178.359 68.3166C179.072 68.211 179.814 68.1221 180.567 68.0555C181.321 67.9943 182.068 67.961 182.759 67.961C183.952 67.961 184.996 68.0555 185.669 68.2332C186.217 68.3777 186.645 68.5888 186.851 68.8166C186.993 68.9999 187.136 69.2332 187.273 69.5055C187.399 69.7666 187.518 70.111 187.61 70.5388C187.713 70.9888 187.787 71.5666 187.844 72.2388C187.878 72.6888 187.901 73.1888 187.912 73.7332C184.551 74.0443 181.743 74.4166 179.557 74.8277C176.983 75.3166 175.237 75.9166 174.244 76.6499C173.582 77.0666 173.034 77.7332 172.555 78.6944C172.098 79.6166 171.876 80.7943 171.876 82.2943C171.876 83.4721 172.013 84.4944 172.287 85.3221C172.572 86.1888 172.983 86.9166 173.491 87.4832C174.09 88.1721 174.963 88.7277 176.087 89.1388C177.166 89.5277 178.57 89.7221 180.385 89.7221C182.542 89.7221 184.323 89.511 185.664 89.0944C187.062 88.661 187.901 88.3221 188.403 87.9888L188.46 87.9444L188.785 89.3166H192.569V73.9166C192.569 72.7666 192.523 71.7555 192.438 70.9055C192.347 70.0499 192.227 69.311 192.073 68.6999C191.907 68.0443 191.685 67.4721 191.405 66.9999C191.137 66.5499 190.851 66.1499 190.56 65.8388C189.847 65.0443 188.854 64.4721 187.593 64.1277C186.446 63.8166 184.985 63.6555 183.255 63.6555V63.6499ZM181.184 85.5332C180.014 85.5332 179.084 85.4277 178.427 85.2166C177.697 84.9832 177.349 84.7332 177.195 84.5721C177 84.3666 176.841 84.0666 176.721 83.6888C176.59 83.261 176.521 82.7277 176.521 82.0944C176.521 81.361 176.601 80.761 176.744 80.3721C176.881 80.0166 177.04 79.761 177.246 79.5721C177.257 79.5666 177.468 79.3888 178.382 79.1277C179.152 78.9055 180.111 78.7055 181.235 78.5166C182.371 78.3332 183.643 78.161 185.013 78.011C185.983 77.9055 186.965 77.8166 187.935 77.7443V84.2888C187.364 84.4999 186.611 84.7332 185.687 84.9888C184.397 85.3444 182.884 85.5221 181.195 85.5221" fill="#563230"/>
<path d="M207.801 58.3167L203.116 59.4944V64.0611H198.059V68.2555H203.116V83C203.116 85.3166 203.709 87.0111 204.873 88.0444C206.026 89.0666 207.767 89.5611 210.187 89.5611C211.123 89.5611 212.087 89.5055 213.046 89.3889C213.987 89.2722 214.815 89.1444 215.494 89L216.287 88.8333L215.962 84.6889L215.34 84.8444C214.855 84.9 214.199 84.9833 213.377 85.0944C212.612 85.2 211.756 85.25 210.826 85.25C210.221 85.25 209.696 85.2111 209.268 85.1278C208.948 85.0666 208.686 84.9555 208.486 84.7889C208.28 84.6222 208.126 84.3944 208.012 84.0889C207.881 83.7389 207.807 83.2111 207.807 82.5555V68.25H216.807L215.192 64.0555H207.801V58.3167Z" fill="#563230"/>
<path d="M244.805 64.061H239.737L232.278 82.761L224.905 64.061H219.849L229.556 89.3055H229.642L224.996 100.572H229.978L244.805 64.061Z" fill="#563230"/>
<path d="M261.452 63.7278C260.648 63.7278 259.843 63.7833 259.061 63.8833C258.291 63.9833 257.572 64.1056 256.915 64.25C256.225 64.4 255.626 64.5556 255.095 64.7333C254.507 64.9222 254.045 65.1167 253.691 65.3278L253.423 65.55L253.006 64.0611H249.257V89.3056H253.942V69.2167C254.667 68.9556 255.5 68.7111 256.43 68.4833C257.634 68.1889 258.964 68.0444 260.385 68.0444C261.39 68.0444 262.297 68.1444 263.09 68.3389C263.787 68.5111 264.34 68.7833 264.728 69.1444C265.122 69.5056 265.436 70.0389 265.658 70.7333C265.904 71.5 266.029 72.5833 266.029 73.9444V89.3056H270.715V73.1222C270.715 69.75 269.933 67.3333 268.398 65.9389C267.633 65.1944 266.68 64.6278 265.561 64.2611C264.494 63.9111 263.107 63.7278 261.447 63.7278" fill="#563230"/>
<path d="M288.686 63.6499C287.802 63.6499 286.911 63.6943 286.044 63.7777C285.216 63.861 284.389 63.9555 283.584 64.0721C282.791 64.1888 282.06 64.3166 281.416 64.4555C280.771 64.5943 280.217 64.7221 279.761 64.8332L278.916 65.0388V69.1666L280.268 68.8832C280.651 68.8055 281.142 68.7166 281.747 68.6277L283.795 68.3166C284.503 68.211 285.251 68.1221 286.01 68.0555C286.763 67.9943 287.505 67.961 288.201 67.961C289.394 67.961 290.433 68.0555 291.112 68.2332C291.66 68.3721 292.088 68.5888 292.293 68.8166C292.436 68.9999 292.578 69.2332 292.715 69.4999C292.847 69.7666 292.961 70.111 293.052 70.5332C293.155 70.9888 293.229 71.5666 293.286 72.2332C293.32 72.6721 293.343 73.1777 293.355 73.7277C289.993 74.0388 287.185 74.411 285 74.8221C282.426 75.311 280.679 75.911 279.681 76.6443C279.019 77.061 278.471 77.7277 277.997 78.6888C277.541 79.6166 277.312 80.7943 277.312 82.2888C277.312 83.4666 277.449 84.4888 277.729 85.3166C278.014 86.1832 278.419 86.911 278.933 87.4777C279.532 88.1666 280.405 88.7221 281.53 89.1332C282.608 89.5221 284.012 89.7166 285.827 89.7166C287.984 89.7166 289.765 89.5055 291.106 89.0888C292.504 88.6555 293.343 88.3166 293.845 87.9832L293.908 87.9388L294.228 89.311H298.012V73.911C298.012 72.761 297.966 71.7555 297.88 70.8999C297.789 70.0388 297.669 69.2943 297.515 68.6999C297.35 68.0388 297.127 67.4666 296.847 66.9999C296.579 66.5499 296.294 66.1555 296.003 65.8388C295.295 65.0443 294.296 64.4721 293.035 64.1277C291.882 63.8166 290.427 63.6555 288.698 63.6555L288.686 63.6499ZM286.626 85.5332C285.456 85.5332 284.526 85.4277 283.87 85.2166C283.139 84.9832 282.791 84.7332 282.637 84.5721C282.443 84.361 282.283 84.0666 282.163 83.6888C282.026 83.2666 281.958 82.7277 281.958 82.0943C281.958 81.3499 282.032 80.7666 282.186 80.3721C282.323 80.0166 282.477 79.761 282.683 79.5777C282.688 79.5721 282.905 79.3943 283.813 79.1277C284.583 78.9055 285.542 78.7055 286.666 78.5166C287.802 78.3332 289.074 78.161 290.45 78.011C291.414 77.9055 292.396 77.8166 293.366 77.7443V84.2943C292.795 84.5055 292.042 84.7388 291.117 84.9943C289.828 85.3499 288.315 85.5277 286.626 85.5277" fill="#563230"/>
<path d="M211.887 118.244C211.716 118.267 211.533 118.272 211.317 118.272C211.06 118.272 210.86 118.211 210.712 118.094C210.62 118.022 210.512 117.828 210.512 117.333V108.383H209.308V117.411C209.308 118.072 209.456 118.567 209.741 118.872C210.038 119.183 210.489 119.339 211.088 119.339C211.351 119.339 211.602 119.322 211.836 119.294C212.064 119.261 212.258 119.228 212.424 119.194L212.595 119.156V118.15L212.35 118.183C212.218 118.2 212.064 118.222 211.887 118.244Z" fill="#563230"/>
<path d="M181.481 113.922C181.332 113.783 181.167 113.672 180.973 113.589C180.779 113.506 180.562 113.461 180.339 113.461C179.883 113.461 179.494 113.617 179.192 113.917C178.884 114.222 178.73 114.6 178.73 115.039C178.73 115.478 178.884 115.861 179.192 116.156C179.5 116.456 179.883 116.606 180.339 116.606C180.562 116.606 180.773 116.567 180.967 116.483C181.161 116.406 181.332 116.289 181.481 116.15C181.629 116.006 181.743 115.839 181.829 115.656C181.914 115.467 181.96 115.256 181.96 115.039C181.96 114.822 181.914 114.611 181.829 114.417C181.743 114.222 181.623 114.056 181.475 113.917L181.481 113.922Z" fill="#563230"/>
<path d="M196.01 118.089L194.024 111.605H192.461L190.189 118.083L188.546 111.605H187.313L189.322 119.267H190.96L193.197 112.85L195.16 119.267H196.781L199.184 111.605H197.957L196.01 118.089Z" fill="#563230"/>
<path d="M206.546 112.289C206.306 112.017 205.981 111.806 205.587 111.667C205.204 111.528 204.731 111.461 204.171 111.461C202.933 111.461 202.008 111.806 201.426 112.495C200.85 113.167 200.559 114.178 200.559 115.495C200.559 116.128 200.622 116.689 200.741 117.167C200.867 117.656 201.078 118.072 201.364 118.406C201.655 118.745 202.031 119 202.494 119.167C202.944 119.328 203.498 119.411 204.137 119.411C204.662 119.411 205.159 119.378 205.61 119.306C206.06 119.239 206.426 119.167 206.7 119.095L206.848 119.056L206.934 118.017L206.654 118.061C206.391 118.106 206.055 118.156 205.638 118.217C205.227 118.278 204.753 118.306 204.223 118.306C203.732 118.306 203.327 118.245 203.013 118.122C202.71 118.006 202.465 117.828 202.288 117.6C202.105 117.367 201.974 117.078 201.9 116.728C201.832 116.422 201.792 116.067 201.78 115.683H207.196V114.578C207.196 114.095 207.145 113.661 207.042 113.283C206.939 112.895 206.762 112.561 206.528 112.289H206.546ZM206.02 114.672H201.837C201.906 113.972 202.1 113.439 202.408 113.078C202.739 112.695 203.304 112.5 204.091 112.5C204.462 112.5 204.776 112.545 205.027 112.628C205.261 112.711 205.455 112.833 205.598 112.995C205.741 113.156 205.849 113.372 205.918 113.633C205.986 113.911 206.026 114.245 206.026 114.622V114.667L206.02 114.672Z" fill="#563230"/>
<path d="M149.573 112.811V111.605H143.672L143.392 112.689H148.163L143.215 118.094V119.267H149.504L149.852 118.183H144.665L149.573 112.811Z" fill="#563230"/>
<path d="M164.508 111.511C164.342 111.5 164.177 111.5 164.006 111.5C163.521 111.5 163.092 111.556 162.744 111.656C162.385 111.761 162.122 111.872 161.894 112.011C161.883 112.022 161.854 112.056 161.808 112.111L161.711 112.222L161.569 111.606H160.604V119.267H161.808V113.089C161.894 113.044 161.985 113 162.088 112.956C162.242 112.889 162.408 112.828 162.585 112.778C162.761 112.728 162.956 112.683 163.155 112.656C163.521 112.606 163.988 112.6 164.377 112.644C164.553 112.667 164.702 112.683 164.81 112.7L165.061 112.739V111.589L164.884 111.556C164.776 111.539 164.651 111.522 164.502 111.511H164.508Z" fill="#563230"/>
<path d="M171.859 111.822C171.55 111.756 171.219 111.689 170.871 111.628C170.477 111.561 170.038 111.528 169.553 111.528C168.897 111.528 168.343 111.6 167.915 111.744C167.476 111.894 167.127 112.094 166.876 112.339C166.534 112.672 166.266 113.133 166.072 113.717C165.883 114.283 165.792 114.967 165.792 115.744C165.792 116.522 165.883 117.15 166.066 117.639C166.254 118.139 166.517 118.522 166.853 118.772C167.087 118.961 167.384 119.111 167.744 119.217C168.092 119.322 168.548 119.372 169.102 119.372C169.604 119.372 170.049 119.333 170.426 119.256C170.826 119.178 171.082 119.1 171.185 119.033C171.231 119.017 171.294 118.978 171.402 118.867C171.402 119.206 171.385 119.511 171.356 119.767C171.328 120.05 171.288 120.294 171.236 120.489C171.185 120.678 171.128 120.833 171.06 120.95C170.991 121.067 170.917 121.167 170.86 121.228C170.706 121.356 170.483 121.467 170.203 121.556C169.918 121.644 169.507 121.694 168.988 121.694C168.469 121.694 167.949 121.667 167.498 121.606C167.053 121.55 166.699 121.494 166.437 121.45L166.18 121.406V122.494L166.363 122.528C166.62 122.572 166.973 122.628 167.424 122.694C167.881 122.767 168.417 122.8 169.022 122.8C169.707 122.8 170.261 122.728 170.66 122.589C171.065 122.444 171.396 122.267 171.647 122.05C171.796 121.917 171.927 121.756 172.041 121.572C172.155 121.389 172.258 121.161 172.344 120.9C172.429 120.639 172.492 120.322 172.538 119.961C172.583 119.6 172.606 119.167 172.606 118.672V111.611H172.19L171.853 111.828L171.859 111.822ZM171.402 117.933C171.117 118.044 170.808 118.133 170.483 118.189C169.701 118.328 168.948 118.322 168.36 118.178C168.075 118.106 167.841 118.006 167.67 117.878C167.476 117.733 167.321 117.483 167.207 117.139C167.087 116.772 167.025 116.256 167.025 115.611C167.025 114.967 167.093 114.428 167.219 114.017C167.344 113.617 167.51 113.317 167.715 113.117C167.892 112.944 168.126 112.817 168.417 112.733C168.72 112.644 169.119 112.6 169.599 112.6C169.987 112.6 170.346 112.617 170.671 112.656C170.928 112.683 171.174 112.717 171.391 112.744V117.939L171.402 117.933Z" fill="#563230"/>
<path d="M157.414 112.233C157.163 111.989 156.821 111.783 156.404 111.633C155.987 111.483 155.479 111.406 154.892 111.406C154.304 111.406 153.745 111.483 153.305 111.644C152.866 111.806 152.495 112.022 152.209 112.289C151.85 112.622 151.564 113.083 151.37 113.661C151.176 114.228 151.079 114.883 151.079 115.606C151.079 116.328 151.165 116.922 151.336 117.383C151.507 117.844 151.713 118.211 151.941 118.467C152.209 118.767 152.563 119 152.997 119.172C153.425 119.339 153.967 119.422 154.606 119.422C155.285 119.422 155.85 119.339 156.278 119.167C156.712 119 157.072 118.772 157.351 118.489C157.654 118.172 157.899 117.739 158.082 117.189C158.259 116.65 158.35 116.006 158.35 115.272C158.35 114.506 158.27 113.878 158.105 113.406C157.939 112.928 157.705 112.533 157.408 112.233H157.414ZM156.918 116.917C156.781 117.3 156.604 117.6 156.398 117.806C156.227 117.972 155.999 118.106 155.713 118.2C155.417 118.3 155.074 118.35 154.686 118.35C154.184 118.35 153.784 118.283 153.505 118.156C153.225 118.028 153.003 117.872 152.849 117.7C152.683 117.517 152.546 117.239 152.443 116.872C152.335 116.494 152.278 116.033 152.278 115.517C152.278 114.883 152.358 114.35 152.523 113.928C152.683 113.517 152.866 113.217 153.065 113.044C153.219 112.911 153.442 112.783 153.722 112.672C154.001 112.561 154.355 112.506 154.789 112.506C155.223 112.506 155.588 112.556 155.856 112.656C156.119 112.75 156.335 112.883 156.495 113.044C156.587 113.139 156.666 113.25 156.741 113.367C156.815 113.483 156.883 113.633 156.935 113.811C156.992 113.989 157.037 114.211 157.072 114.472C157.106 114.733 157.123 115.044 157.123 115.406C157.123 116.022 157.049 116.533 156.912 116.922L156.918 116.917Z" fill="#563230"/>
<path d="M234.926 111.661C234.601 111.556 234.184 111.5 233.677 111.5C233.437 111.5 233.186 111.517 232.946 111.55C232.706 111.583 232.484 111.622 232.284 111.661C232.079 111.706 231.89 111.756 231.725 111.806C231.542 111.861 231.405 111.922 231.268 112.011L231.194 112.083C231.16 112.117 231.126 112.15 231.091 112.194L230.926 111.606H229.984V119.267H231.188V113.006C231.439 112.911 231.736 112.822 232.067 112.739C232.455 112.644 232.883 112.6 233.34 112.6C233.665 112.6 233.962 112.633 234.219 112.694C234.458 112.756 234.652 112.85 234.789 112.978C234.926 113.106 235.04 113.294 235.115 113.533C235.195 113.789 235.24 114.139 235.24 114.578V119.267H236.444V114.317C236.444 113.294 236.21 112.567 235.76 112.156C235.537 111.933 235.252 111.767 234.921 111.661H234.926Z" fill="#563230"/>
<path d="M259.826 118.089L257.874 111.7L257.846 111.605H256.276L254.005 118.083L252.367 111.605H251.129L253.137 119.267H254.775L257.012 112.85L258.976 119.267H260.596L262.999 111.605H261.772L259.826 118.089Z" fill="#563230"/>
<path d="M270.721 112.233C270.47 111.989 270.133 111.789 269.711 111.633C269.294 111.483 268.786 111.406 268.198 111.406C267.61 111.406 267.045 111.483 266.612 111.644C266.166 111.806 265.801 112.022 265.516 112.289C265.156 112.622 264.871 113.083 264.677 113.661C264.483 114.228 264.386 114.878 264.386 115.606C264.386 116.333 264.471 116.922 264.643 117.383C264.814 117.844 265.019 118.211 265.248 118.472C265.516 118.772 265.875 119.006 266.309 119.172C266.737 119.339 267.279 119.422 267.919 119.422C268.598 119.422 269.157 119.339 269.591 119.167C270.024 119 270.384 118.772 270.664 118.489C270.966 118.172 271.211 117.733 271.394 117.189C271.571 116.65 271.662 116.006 271.662 115.272C271.662 114.539 271.582 113.878 271.417 113.406C271.251 112.922 271.017 112.528 270.721 112.233ZM270.224 116.917C270.087 117.3 269.91 117.6 269.705 117.806C269.534 117.972 269.305 118.106 269.02 118.2C268.729 118.3 268.381 118.35 267.993 118.35C267.49 118.35 267.091 118.283 266.811 118.156C266.532 118.028 266.309 117.872 266.155 117.7C265.99 117.517 265.853 117.239 265.75 116.872C265.641 116.494 265.584 116.039 265.584 115.517C265.584 114.883 265.664 114.35 265.83 113.928C265.99 113.517 266.172 113.217 266.372 113.044C266.526 112.911 266.749 112.783 267.028 112.672C267.308 112.561 267.662 112.506 268.095 112.506C268.529 112.506 268.894 112.556 269.163 112.656C269.431 112.756 269.642 112.883 269.802 113.044C269.893 113.139 269.973 113.25 270.047 113.367C270.121 113.483 270.184 113.633 270.241 113.811C270.298 113.994 270.344 114.217 270.378 114.472C270.412 114.728 270.43 115.044 270.43 115.406C270.43 116.022 270.355 116.533 270.218 116.922L270.224 116.917Z" fill="#563230"/>
<path d="M278.847 111.661C278.522 111.556 278.106 111.5 277.598 111.5C277.352 111.5 277.107 111.517 276.867 111.55C276.633 111.578 276.411 111.617 276.205 111.661C275.994 111.706 275.806 111.756 275.646 111.806C275.469 111.861 275.332 111.922 275.189 112.011L275.115 112.083C275.081 112.117 275.047 112.156 275.012 112.194L274.847 111.606H273.905V119.267H275.109V113.006C275.36 112.911 275.657 112.822 275.988 112.739C276.376 112.644 276.804 112.6 277.261 112.6C277.586 112.6 277.883 112.633 278.14 112.694C278.379 112.756 278.573 112.85 278.71 112.978C278.847 113.106 278.962 113.294 279.036 113.533C279.116 113.789 279.161 114.139 279.161 114.578V119.267H280.365V114.317C280.365 113.3 280.132 112.567 279.681 112.156C279.452 111.933 279.173 111.767 278.842 111.661H278.847Z" fill="#563230"/>
<path d="M220.191 112.811V111.605H214.29L214.005 112.689H218.781L213.828 118.094V119.267H220.122L220.471 118.183H215.283L220.191 112.811Z" fill="#563230"/>
<path d="M288.589 112.289C288.35 112.017 288.024 111.806 287.63 111.667C287.248 111.528 286.774 111.461 286.215 111.461C284.977 111.461 284.052 111.806 283.47 112.495C282.894 113.167 282.603 114.178 282.603 115.495C282.603 116.128 282.665 116.689 282.785 117.167C282.911 117.656 283.122 118.072 283.407 118.406C283.698 118.745 284.081 119 284.537 119.167C284.988 119.328 285.542 119.411 286.187 119.411C286.712 119.411 287.208 119.378 287.659 119.306C288.11 119.239 288.475 119.167 288.749 119.095L288.897 119.056L288.989 118.017L288.709 118.061C288.447 118.106 288.104 118.156 287.693 118.217C287.282 118.278 286.809 118.306 286.278 118.306C285.787 118.306 285.382 118.245 285.068 118.122C284.766 118.006 284.52 117.828 284.343 117.6C284.161 117.367 284.029 117.078 283.949 116.728C283.881 116.422 283.841 116.072 283.83 115.683H289.246V114.578C289.246 114.1 289.194 113.661 289.091 113.283C288.983 112.895 288.812 112.556 288.572 112.289H288.589ZM288.064 114.672H283.881C283.949 113.972 284.144 113.439 284.457 113.078C284.788 112.695 285.353 112.5 286.141 112.5C286.512 112.5 286.826 112.545 287.077 112.628C287.311 112.711 287.505 112.833 287.648 112.995C287.79 113.156 287.899 113.372 287.967 113.639C288.036 113.917 288.076 114.25 288.076 114.628V114.672H288.064Z" fill="#563230"/>
<path d="M297.173 112.156C296.95 111.939 296.665 111.772 296.334 111.661C296.008 111.556 295.592 111.5 295.084 111.5C294.838 111.5 294.593 111.517 294.353 111.55C294.119 111.578 293.897 111.617 293.691 111.661C293.48 111.706 293.292 111.756 293.132 111.806C292.949 111.861 292.812 111.922 292.675 112.011L292.601 112.083C292.567 112.117 292.533 112.156 292.499 112.194L292.333 111.606H291.391V119.267H292.596V113.006C292.847 112.911 293.143 112.822 293.474 112.739C293.862 112.644 294.291 112.6 294.747 112.6C295.072 112.6 295.369 112.633 295.626 112.694C295.866 112.756 296.06 112.85 296.197 112.978C296.339 113.106 296.448 113.294 296.522 113.533C296.602 113.789 296.642 114.139 296.642 114.578V119.267H297.846V114.317C297.846 113.3 297.612 112.572 297.155 112.156H297.173Z" fill="#563230"/>
<path d="M245.302 113.922C245.159 113.789 244.988 113.672 244.794 113.589C244.6 113.506 244.383 113.461 244.16 113.461C243.704 113.461 243.316 113.617 243.013 113.917C242.711 114.217 242.551 114.595 242.551 115.039C242.551 115.483 242.705 115.861 243.013 116.156C243.321 116.456 243.704 116.606 244.16 116.606C244.383 116.606 244.594 116.567 244.788 116.483C244.976 116.406 245.153 116.295 245.302 116.15C245.45 116.006 245.564 115.839 245.65 115.656C245.735 115.467 245.781 115.256 245.781 115.039C245.781 114.822 245.735 114.611 245.65 114.417C245.564 114.222 245.444 114.056 245.296 113.917L245.302 113.922Z" fill="#563230"/>
<path d="M223.53 111.605H222.325V119.267H223.53V111.605Z" fill="#563230"/>
<path d="M222.942 110.044C223.027 110.044 223.113 110.039 223.187 110.022C223.284 110.006 223.375 109.967 223.45 109.906C223.53 109.839 223.587 109.75 223.615 109.639C223.638 109.556 223.649 109.456 223.649 109.356C223.649 109.111 223.587 108.939 223.467 108.828C223.358 108.728 223.199 108.678 222.97 108.678C222.822 108.678 222.611 108.694 222.485 108.817C222.331 108.917 222.251 109.1 222.251 109.367C222.251 109.6 222.308 109.767 222.411 109.867C222.514 109.983 222.691 110.044 222.947 110.044H222.942Z" fill="#563230"/>
<path d="M226.155 120.022C226.155 120.367 226.138 120.667 226.098 120.905C226.063 121.122 226.001 121.3 225.909 121.433C225.83 121.555 225.715 121.639 225.567 121.694C225.396 121.755 225.162 121.783 224.871 121.783C224.608 121.783 224.374 121.772 224.18 121.755C223.969 121.739 223.804 121.728 223.678 121.717L223.444 121.7V122.661L223.621 122.694C223.718 122.711 223.883 122.733 224.117 122.767C224.351 122.8 224.62 122.811 224.911 122.811C225.379 122.811 225.772 122.75 226.086 122.628C226.412 122.505 226.668 122.317 226.862 122.067C227.051 121.828 227.182 121.528 227.256 121.183C227.325 120.85 227.359 120.467 227.359 120.044V111.6H226.155V120.017V120.022Z" fill="#563230"/>
<path d="M226.8 108.672C226.651 108.672 226.44 108.689 226.315 108.811C226.155 108.911 226.075 109.094 226.075 109.361C226.075 109.594 226.132 109.761 226.235 109.861C226.337 109.978 226.514 110.039 226.771 110.039C226.857 110.039 226.942 110.033 227.016 110.017C227.119 110 227.205 109.961 227.279 109.9C227.359 109.833 227.416 109.744 227.444 109.633C227.467 109.55 227.479 109.45 227.479 109.35C227.479 109.105 227.416 108.933 227.296 108.822C227.188 108.722 227.028 108.672 226.8 108.672Z" fill="#563230"/>
</g>
<defs>
<filter id="filter0_d_4217_6406" x="0" y="-11" width="376" height="214" filterUnits="userSpaceOnUse" color-interpolation-filters="sRGB">
<feFlood flood-opacity="0" result="BackgroundImageFix"/>
<feColorMatrix in="SourceAlpha" type="matrix" values="0 0 0 0 0 0 0 0 0 0 0 0 0 0 0 0 0 0 127 0" result="hardAlpha"/>
<feMorphology radius="4" operator="erode" in="SourceAlpha" result="effect1_dropShadow_4217_6406"/>
<feOffset dy="9"/>
<feGaussianBlur stdDeviation="12"/>
<feColorMatrix type="matrix" values="0 0 0 0 0 0 0 0 0 0 0 0 0 0 0 0 0 0 0.1 0"/>
<feBlend mode="normal" in2="BackgroundImageFix" result="effect1_dropShadow_4217_6406"/>
<feBlend mode="normal" in="SourceGraphic" in2="effect1_dropShadow_4217_6406" result="shape"/>
</filter>
<clipPath id="clip0_4217_6406">
<rect width="219" height="68" fill="white" transform="translate(79 55)"/>
</clipPath>
</defs>
</svg>
